<mxfile host="www.draw.io" modified="2019-10-22T12:27:31.876Z" agent="Mozilla/5.0 (Macintosh; Intel Mac OS X 10_14_4) AppleWebKit/537.36 (KHTML, like Gecko) Chrome/77.0.3865.90 Safari/537.36" etag="-QMCGA0m7R_15PL3yFcf" version="12.1.3" type="github" pages="1">
  <diagram id="VBOkQ_S7a9ot1E7_a6rG" name="Page-1">
    <mxGraphModel dx="932" dy="448" grid="1" gridSize="10" guides="1" tooltips="1" connect="1" arrows="1" fold="1" page="1" pageScale="1" pageWidth="1654" pageHeight="2336" math="0" shadow="0">
      <root>
        <mxCell id="0"/>
        <mxCell id="1" parent="0"/>
        <mxCell id="ZTXmPjuoZ7FuK3dKGlyl-37" value="&lt;br&gt;&lt;br&gt;法务" style="shape=actor;whiteSpace=wrap;html=1;" parent="1" vertex="1">
          <mxGeometry x="310" y="1262.5" width="40" height="60" as="geometry"/>
        </mxCell>
        <mxCell id="ZTXmPjuoZ7FuK3dKGlyl-33" value="law" style="shape=dataStorage;whiteSpace=wrap;html=1;fontSize=16;" parent="1" vertex="1">
          <mxGeometry x="50" y="960" width="100" height="80" as="geometry"/>
        </mxCell>
        <mxCell id="ZTXmPjuoZ7FuK3dKGlyl-34" value="" style="shape=curlyBracket;whiteSpace=wrap;html=1;rounded=1;size=0.7705882352941177;" parent="1" vertex="1">
          <mxGeometry x="140" y="697.5" width="170" height="605" as="geometry"/>
        </mxCell>
        <mxCell id="ZTXmPjuoZ7FuK3dKGlyl-35" value="&lt;br&gt;&lt;br&gt;lawer" style="shape=actor;whiteSpace=wrap;html=1;" parent="1" vertex="1">
          <mxGeometry x="310" y="667.5" width="40" height="60" as="geometry"/>
        </mxCell>
        <mxCell id="ZTXmPjuoZ7FuK3dKGlyl-36" value="&lt;br&gt;&lt;br&gt;公务员" style="shape=actor;whiteSpace=wrap;html=1;" parent="1" vertex="1">
          <mxGeometry x="320" y="970" width="40" height="60" as="geometry"/>
        </mxCell>
        <mxCell id="ZTXmPjuoZ7FuK3dKGlyl-38" value="5" style="ellipse;shape=cloud;whiteSpace=wrap;html=1;" parent="1" vertex="1">
          <mxGeometry x="370" y="647.5" width="60" height="40" as="geometry"/>
        </mxCell>
        <mxCell id="ZTXmPjuoZ7FuK3dKGlyl-39" value="3" style="ellipse;shape=cloud;whiteSpace=wrap;html=1;" parent="1" vertex="1">
          <mxGeometry x="380" y="970" width="60" height="40" as="geometry"/>
        </mxCell>
        <mxCell id="ZTXmPjuoZ7FuK3dKGlyl-40" value="2" style="ellipse;shape=cloud;whiteSpace=wrap;html=1;" parent="1" vertex="1">
          <mxGeometry x="390" y="1242.5" width="60" height="40" as="geometry"/>
        </mxCell>
        <mxCell id="ZTXmPjuoZ7FuK3dKGlyl-41" value="" style="curved=1;endArrow=classic;html=1;" parent="1" edge="1">
          <mxGeometry width="50" height="50" relative="1" as="geometry">
            <mxPoint x="440" y="1010" as="sourcePoint"/>
            <mxPoint x="630" y="930" as="targetPoint"/>
            <Array as="points">
              <mxPoint x="490" y="1010"/>
              <mxPoint x="480" y="930"/>
            </Array>
          </mxGeometry>
        </mxCell>
        <mxCell id="ZTXmPjuoZ7FuK3dKGlyl-44" value="" style="endArrow=classic;html=1;curved=1;verticalAlign=top;exitX=1.075;exitY=0.892;exitDx=0;exitDy=0;exitPerimeter=0;" parent="1" source="ZTXmPjuoZ7FuK3dKGlyl-35" edge="1">
          <mxGeometry width="50" height="50" relative="1" as="geometry">
            <mxPoint x="400" y="731.5" as="sourcePoint"/>
            <mxPoint x="650" y="731.5" as="targetPoint"/>
            <Array as="points">
              <mxPoint x="560" y="777.5"/>
              <mxPoint x="440" y="657.5"/>
            </Array>
          </mxGeometry>
        </mxCell>
        <mxCell id="ZTXmPjuoZ7FuK3dKGlyl-45" value="法院" style="rounded=1;whiteSpace=wrap;html=1;fontSize=14;" parent="1" vertex="1">
          <mxGeometry x="630" y="880" width="120" height="60" as="geometry"/>
        </mxCell>
        <mxCell id="ZTXmPjuoZ7FuK3dKGlyl-46" value="检察院" style="rounded=1;whiteSpace=wrap;html=1;fontSize=14;" parent="1" vertex="1">
          <mxGeometry x="690" y="990" width="120" height="60" as="geometry"/>
        </mxCell>
        <mxCell id="ZTXmPjuoZ7FuK3dKGlyl-49" value="&lt;h1&gt;&lt;span style=&quot;color: rgb(73 , 73 , 73) ; font-size: 11pt ; font-weight: normal&quot;&gt;接触案件种类比较广，不会有很多琐事&lt;/span&gt;&lt;br&gt;&lt;/h1&gt;" style="text;html=1;strokeColor=none;fillColor=none;spacing=5;spacingTop=-20;whiteSpace=wrap;overflow=hidden;rounded=0;" parent="1" vertex="1">
          <mxGeometry x="740" y="800" width="130" height="98" as="geometry"/>
        </mxCell>
        <mxCell id="ZTXmPjuoZ7FuK3dKGlyl-50" value="&lt;h1&gt;&lt;br&gt;&lt;/h1&gt;&lt;p&gt;&lt;span&gt;&lt;/span&gt;&lt;/p&gt;&lt;p class=&quot;ql-long-23941791&quot; style=&quot;line-height: 1.7 ; margin-bottom: 0pt ; margin-top: 0pt ; font-size: 11pt ; color: #494949&quot;&gt;&lt;span&gt;&lt;/span&gt;&lt;/p&gt;&lt;p class=&quot;ql-long-23941791&quot; style=&quot;line-height: 1.7 ; margin-bottom: 0pt ; margin-top: 0pt ; font-size: 11pt ; color: #494949&quot;&gt;&lt;span class=&quot;ql-author-23941791&quot;&gt;主要是刑事案件&lt;/span&gt;&lt;/p&gt;" style="text;html=1;strokeColor=none;fillColor=none;spacing=5;spacingTop=-20;whiteSpace=wrap;overflow=hidden;rounded=0;" parent="1" vertex="1">
          <mxGeometry x="810" y="920" width="190" height="70" as="geometry"/>
        </mxCell>
        <mxCell id="ZTXmPjuoZ7FuK3dKGlyl-57" value="安稳，轻松、工资&#xa;收入一般，&#xa;省会类城市、&#xa;东部沿海会好些" style="rounded=1;arcSize=10;dashed=1;strokeColor=#000000;fillColor=none;gradientColor=none;dashPattern=8 3 1 3;strokeWidth=2;fontSize=14;" parent="1" vertex="1">
          <mxGeometry x="950" y="880" width="150" height="140" as="geometry"/>
        </mxCell>
        <mxCell id="ZTXmPjuoZ7FuK3dKGlyl-62" value="诉讼律师" style="ellipse;shape=cloud;strokeWidth=2;fontSize=14;whiteSpace=wrap;html=1;align=center;" parent="1" vertex="1">
          <mxGeometry x="640" y="560" width="100" height="100" as="geometry"/>
        </mxCell>
        <mxCell id="ZTXmPjuoZ7FuK3dKGlyl-63" value="" style="curved=1;endArrow=classic;html=1;exitX=1;exitY=0.75;exitDx=0;exitDy=0;entryX=0.05;entryY=0.53;entryDx=0;entryDy=0;entryPerimeter=0;" parent="1" source="ZTXmPjuoZ7FuK3dKGlyl-35" target="ZTXmPjuoZ7FuK3dKGlyl-62" edge="1">
          <mxGeometry width="50" height="50" relative="1" as="geometry">
            <mxPoint x="460" y="697.5" as="sourcePoint"/>
            <mxPoint x="510" y="647.5" as="targetPoint"/>
            <Array as="points">
              <mxPoint x="510" y="697.5"/>
              <mxPoint x="460" y="647.5"/>
            </Array>
          </mxGeometry>
        </mxCell>
        <mxCell id="ZTXmPjuoZ7FuK3dKGlyl-65" value="非诉讼律师" style="ellipse;shape=cloud;strokeWidth=2;fontSize=14;whiteSpace=wrap;html=1;align=center;" parent="1" vertex="1">
          <mxGeometry x="650" y="677.5" width="100" height="100" as="geometry"/>
        </mxCell>
        <mxCell id="ZTXmPjuoZ7FuK3dKGlyl-66" value="" style="endArrow=classic;html=1;curved=1;verticalAlign=top;" parent="1" edge="1">
          <mxGeometry width="50" height="50" relative="1" as="geometry">
            <mxPoint x="450" y="1024" as="sourcePoint"/>
            <mxPoint x="700" y="1024" as="targetPoint"/>
            <Array as="points">
              <mxPoint x="610" y="1070"/>
              <mxPoint x="490" y="950"/>
            </Array>
          </mxGeometry>
        </mxCell>
        <mxCell id="ZTXmPjuoZ7FuK3dKGlyl-68" value="身体素质要求贼高，淘汰和转行的比例蛮高的" style="text;html=1;strokeColor=none;fillColor=none;align=center;verticalAlign=middle;whiteSpace=wrap;rounded=0;" parent="1" vertex="1">
          <mxGeometry x="500" y="580" width="80" height="20" as="geometry"/>
        </mxCell>
        <mxCell id="ZTXmPjuoZ7FuK3dKGlyl-71" value="加班比诉讼律师更多" style="text;html=1;strokeColor=none;fillColor=none;align=center;verticalAlign=middle;whiteSpace=wrap;rounded=0;" parent="1" vertex="1">
          <mxGeometry x="510" y="727.5" width="80" height="20" as="geometry"/>
        </mxCell>
        <mxCell id="ZTXmPjuoZ7FuK3dKGlyl-73" value="注重的是律师，会影响你&#xa;的从业风格、路线、水平&#xa;案件繁多，主要是跟着&#xa;师傅的业务线走，工资也是师傅&#xa;自掏腰包，出差&#xa;频繁，初期工资一般，可能&#xa;不会有公积金，靠积累人脉&#xa;和业务线，2年左右拿到律师&#xa;证，开始和律师合作，分成&#xa;处理业务，律师比实习的&#xa;律师只有更累，案子数量涉及到&#xa;主要的业务就不是很好控制" style="rounded=1;arcSize=10;dashed=1;strokeColor=#000000;fillColor=none;gradientColor=none;dashPattern=8 3 1 3;strokeWidth=2;fontSize=14;" parent="1" vertex="1">
          <mxGeometry x="720" y="350" width="270" height="230" as="geometry"/>
        </mxCell>
        <mxCell id="ZTXmPjuoZ7FuK3dKGlyl-74" value="非诉讼律师，更注重团队&#xa;和律所，&#xa;五险一金比较全&#xa;加班量普遍比诉讼&#xa;律师多，当然前期收入会&#xa;相对高不少，据说后期&#xa;天花板比较明显" style="rounded=1;arcSize=10;dashed=1;strokeColor=#000000;fillColor=none;gradientColor=none;dashPattern=8 3 1 3;strokeWidth=2;fontSize=14;" parent="1" vertex="1">
          <mxGeometry x="900" y="600" width="190" height="178" as="geometry"/>
        </mxCell>
        <mxCell id="ZTXmPjuoZ7FuK3dKGlyl-76" value="" style="rounded=0;comic=1;strokeWidth=2;endArrow=blockThin;html=1;fontFamily=Comic Sans MS;fontStyle=1;" parent="1" edge="1">
          <mxGeometry width="50" height="50" relative="1" as="geometry">
            <mxPoint x="440" y="1040" as="sourcePoint"/>
            <mxPoint x="600" y="1130" as="targetPoint"/>
          </mxGeometry>
        </mxCell>
        <mxCell id="ZTXmPjuoZ7FuK3dKGlyl-77" value="律师&lt;br style=&quot;font-size: 14px;&quot;&gt;比如税务局的律师" style="rounded=1;whiteSpace=wrap;html=1;fontSize=14;" parent="1" vertex="1">
          <mxGeometry x="610" y="1090" width="120" height="60" as="geometry"/>
        </mxCell>
        <mxCell id="ZTXmPjuoZ7FuK3dKGlyl-78" value="体制内的有编制，&#xa;具体的没有了解过，&#xa;不一定公务员类" style="rounded=1;arcSize=10;dashed=1;strokeColor=#000000;fillColor=none;gradientColor=none;dashPattern=8 3 1 3;strokeWidth=2;fontSize=14;" parent="1" vertex="1">
          <mxGeometry x="790" y="1090" width="150" height="140" as="geometry"/>
        </mxCell>
        <mxCell id="ZTXmPjuoZ7FuK3dKGlyl-79" value="&lt;span style=&quot;font-size: 14px;&quot;&gt;&lt;p class=&quot;ql-long-23941791&quot; style=&quot;line-height: 1.7; margin-bottom: 0pt; margin-top: 0pt; font-size: 14px; color: rgb(73, 73, 73);&quot;&gt;&lt;span class=&quot;ql-author-23941791&quot; style=&quot;font-size: 14px;&quot;&gt;大型国企 央企，发展前景好的企业，大型互联网企业&lt;/span&gt;&lt;/p&gt;&lt;/span&gt;" style="rounded=1;whiteSpace=wrap;html=1;fontSize=14;" parent="1" vertex="1">
          <mxGeometry x="440" y="1292" width="190" height="61" as="geometry"/>
        </mxCell>
        <mxCell id="ZTXmPjuoZ7FuK3dKGlyl-81" value="" style="curved=1;endArrow=classic;html=1;" parent="1" edge="1">
          <mxGeometry width="50" height="50" relative="1" as="geometry">
            <mxPoint x="330" y="730" as="sourcePoint"/>
            <mxPoint x="320" y="1250" as="targetPoint"/>
            <Array as="points">
              <mxPoint x="210" y="780"/>
            </Array>
          </mxGeometry>
        </mxCell>
        <mxCell id="ZTXmPjuoZ7FuK3dKGlyl-82" value="" style="curved=1;endArrow=classic;html=1;exitX=0.75;exitY=1;exitDx=0;exitDy=0;entryX=0.75;entryY=0.25;entryDx=0;entryDy=0;entryPerimeter=0;" parent="1" source="ZTXmPjuoZ7FuK3dKGlyl-36" target="ZTXmPjuoZ7FuK3dKGlyl-37" edge="1">
          <mxGeometry width="50" height="50" relative="1" as="geometry">
            <mxPoint x="520" y="1110" as="sourcePoint"/>
            <mxPoint x="330" y="1190" as="targetPoint"/>
            <Array as="points">
              <mxPoint x="370" y="1110"/>
              <mxPoint x="380" y="1190"/>
            </Array>
          </mxGeometry>
        </mxCell>
        <mxCell id="ZTXmPjuoZ7FuK3dKGlyl-86" value="转" style="html=1;shadow=0;dashed=0;align=center;verticalAlign=middle;shape=mxgraph.arrows2.stylisedArrow;dy=0.6;dx=40;notch=15;feather=0.4;fontSize=12;direction=south;" parent="1" vertex="1">
          <mxGeometry x="300" y="1080" width="60" height="100" as="geometry"/>
        </mxCell>
        <mxCell id="ZTXmPjuoZ7FuK3dKGlyl-87" value="公证员，有编制，属于&#xa;事业单位，不属于公务员&#xa;壶体的不晓得哦&#xa;其他&#xa;法律新媒体&#xa;法律编辑&#xa;高校教师&#xa;培训机构辅导&#xa;法律翻译" style="rounded=1;arcSize=10;dashed=1;strokeColor=#000000;fillColor=none;gradientColor=none;dashPattern=8 3 1 3;strokeWidth=2;fontSize=14;" parent="1" vertex="1">
          <mxGeometry x="75" y="1450" width="345" height="180" as="geometry"/>
        </mxCell>
        <mxCell id="ZTXmPjuoZ7FuK3dKGlyl-88" value="公务员 律师后期转&#xa;法务，也是一个不错的&#xa;选择，同样的条件下，&#xa;法务&#xa;会比公务员好一些" style="rounded=1;arcSize=10;dashed=1;strokeColor=#000000;fillColor=none;gradientColor=none;dashPattern=8 3 1 3;strokeWidth=2;fontSize=14;" parent="1" vertex="1">
          <mxGeometry x="750" y="1280" width="150" height="140" as="geometry"/>
        </mxCell>
      </root>
    </mxGraphModel>
  </diagram>
</mxfile>
